<svg width="25" height="25" viewBox="0 0 30 30" fill="none" xmlns="http://www.w3.org/2000/svg">
    <path d="M4.22866 20.3171L8.26466 17.2308C8.03388 16.5298 7.90909 15.78 7.90909 15C7.90909 14.22 8.03388 13.4701 8.26466 12.7692L4.22866 9.68286C3.44149 11.2832 3 13.0876 3 15C3 16.9124 3.44149 18.7168 4.22866 20.3171Z" fill="#FBBC05"></path>
    <path d="M4.22705 20.3138C6.1783 24.284 10.2566 27 15 27C21 27 26.4546 22.6364 26.4546 15C26.4546 14.2909 26.3455 13.5273 26.1818 12.8182H15V17.4545H21.4364C20.8364 20.4 18.3273 22.0909 15 22.0909C11.849 22.0909 9.18964 20.0544 8.2614 17.2208L4.22705 20.3138Z" fill="#34A853"></path>
    <path d="M8.26463 12.7692C9.19583 9.94087 11.8527 7.90909 15 7.90909C16.6909 7.90909 18.2182 8.50909 19.4182 9.49091L22.9091 6C20.7818 4.14545 18.0545 3 15 3C10.2579 3 6.18053 5.71451 4.22864 9.68286L8.26463 12.7692Z" fill="#EA4335"></path>
    <path d="M15 12.8182H26.1818C26.3455 13.5273 26.4545 14.2909 26.4545 15C26.4545 18.9111 25.0237 21.9638 22.8215 24.0114L18.99 21.045C20.2428 20.2543 21.1144 19.035 21.4364 17.4545H15V12.8182Z" fill="#4285F4"></path>
</svg>